<?xml version="1.0" encoding="UTF-8" standalone="no"?>
<!-- Created with Inkscape (http://www.inkscape.org/) -->

<svg
   xmlns:dc="http://purl.org/dc/elements/1.1/"
   xmlns:cc="http://creativecommons.org/ns#"
   xmlns:rdf="http://www.w3.org/1999/02/22-rdf-syntax-ns#"
   xmlns:svg="http://www.w3.org/2000/svg"
   xmlns="http://www.w3.org/2000/svg"
   xmlns:sodipodi="http://sodipodi.sourceforge.net/DTD/sodipodi-0.dtd"
   xmlns:inkscape="http://www.inkscape.org/namespaces/inkscape"
   width="210mm"
   height="297mm"
   viewBox="0 0 210 297"
   version="1.1"
   id="svg8"
   inkscape:export-filename="/home/antonio/bitmap.png"
   inkscape:export-xdpi="20.959999"
   inkscape:export-ydpi="20.959999"
   inkscape:version="0.92.3 (2405546, 2018-03-11)"
   sodipodi:docname="galaxy.svg">
  <defs
     id="defs2">
    <marker
       inkscape:stockid="EmptyTriangleInS"
       orient="auto"
       refY="0.0"
       refX="0.0"
       id="EmptyTriangleInS"
       style="overflow:visible"
       inkscape:isstock="true">
      <path
         id="path1001"
         d="M 5.77,0.0 L -2.88,5.0 L -2.88,-5.0 L 5.77,0.0 z "
         style="fill-rule:evenodd;fill:#ffffff;stroke:#000000;stroke-width:1pt;stroke-opacity:1"
         transform="scale(-0.2) translate(-3.0,0)" />
    </marker>
    <marker
       inkscape:stockid="SquareS"
       orient="auto"
       refY="0.0"
       refX="0.0"
       id="SquareS"
       style="overflow:visible"
       inkscape:isstock="true">
      <path
         id="path920"
         d="M -5.0,-5.0 L -5.0,5.0 L 5.0,5.0 L 5.0,-5.0 L -5.0,-5.0 z "
         style="fill-rule:evenodd;stroke:#000000;stroke-width:1pt;stroke-opacity:1;fill:#000000;fill-opacity:1"
         transform="scale(0.2)" />
    </marker>
    <marker
       inkscape:stockid="StopS"
       orient="auto"
       refY="0.0"
       refX="0.0"
       id="StopS"
       style="overflow:visible"
       inkscape:isstock="true">
      <path
         id="path1019"
         d="M 0.0,5.65 L 0.0,-5.65"
         style="fill:none;fill-opacity:0.75;fill-rule:evenodd;stroke:#000000;stroke-width:1pt;stroke-opacity:1"
         transform="scale(0.2)" />
    </marker>
  </defs>
  <sodipodi:namedview
     id="base"
     pagecolor="#ffffff"
     bordercolor="#666666"
     borderopacity="1.0"
     inkscape:pageopacity="0.0"
     inkscape:pageshadow="2"
     inkscape:zoom="0.98994949"
     inkscape:cx="209.37138"
     inkscape:cy="175.44967"
     inkscape:document-units="mm"
     inkscape:current-layer="layer1"
     showgrid="false"
     showguides="true"
     inkscape:guide-bbox="true"
     inkscape:window-width="1600"
     inkscape:window-height="851"
     inkscape:window-x="0"
     inkscape:window-y="25"
     inkscape:window-maximized="1">
    <sodipodi:guide
       position="0,263.26049"
       orientation="1,0"
       id="guide815"
       inkscape:locked="false" />
    <sodipodi:guide
       position="99.958801,255.50968"
       orientation="1,0"
       id="guide817"
       inkscape:locked="false" />
    <sodipodi:guide
       position="-31.537804,99.958804"
       orientation="0,1"
       id="guide819"
       inkscape:locked="false" />
    <sodipodi:guide
       position="-37.952272,0"
       orientation="0,1"
       id="guide821"
       inkscape:locked="false" />
  </sodipodi:namedview>
  <metadata
     id="metadata5">
    <rdf:RDF>
      <cc:Work
         rdf:about="">
        <dc:format>image/svg+xml</dc:format>
        <dc:type
           rdf:resource="http://purl.org/dc/dcmitype/StillImage" />
        <dc:title></dc:title>
      </cc:Work>
    </rdf:RDF>
  </metadata>
  <g
     inkscape:label="Layer 1"
     inkscape:groupmode="layer"
     id="layer1">
    <circle
       style="opacity:1;fill:#ff0000;fill-opacity:1;stroke:#ff0000;stroke-width:1.54451966;stroke-miterlimit:4;stroke-dasharray:none;stroke-dashoffset:0;stroke-opacity:1"
       id="path840"
       cx="49.94347"
       cy="246.93436"
       r="4.2299724" />
    <path
       style="fill:#ff0000;stroke:#ffffff;stroke-width:0.26458332px;stroke-linecap:butt;stroke-linejoin:miter;stroke-opacity:1;fill-opacity:1"
       d="m 46.924399,240.81517 c 0,0 8.300852,-10.13058 16.879229,-1.45654 5.198714,5.25669 2.616169,15.81123 -1.391701,22.02382 -4.790852,7.4263 -14.808812,12.25866 -23.642507,11.99796 -8.696931,-0.25666 -17.638544,-5.97512 -22.539372,-13.16431 -5.101207,-7.48312 -6.3107744,-18.04341 -4.180667,-26.8458 1.860974,-7.69023 7.649916,-14.43106 13.971688,-19.18901 6.864139,-5.16616 18.860822,-5.91792 18.860822,-5.91792 0,0 -10.728843,2.80996 -17.049223,7.97386 -5.758456,4.70479 -10.438174,11.27966 -12.169584,18.51133 -1.880299,7.85355 -0.892933,16.32672 3.590774,23.04312 4.310923,6.45759 11.4588,11.17409 19.215867,11.50929 7.972971,0.34453 16.656101,-3.02678 21.153235,-9.61941 3.451867,-5.0603 5.945737,-13.23241 2.346141,-18.18871 -4.842041,-6.66704 -15.044702,-0.67768 -15.044702,-0.67768 z"
       id="path1202"
       inkscape:connector-curvature="0"
       sodipodi:nodetypes="csssssscssssssc" />
    <path
       style="fill:#ff0000;stroke:#ffffff;stroke-width:0.26458332px;stroke-linecap:butt;stroke-linejoin:miter;stroke-opacity:1;fill-opacity:1"
       d="m 53.771047,254.35076 c 0,0 -14.499719,4.55678 -20.043388,-6.48374 -3.520363,-7.011 0.342532,-15.45816 6.06105,-20.82897 5.406912,-5.07816 15.884245,-8.25781 23.264529,-7.51367 8.428798,0.84986 18.540559,4.31634 22.508578,11.8011 4.872191,9.19028 2.772338,19.46655 -1.922307,27.52578 -3.764567,6.46257 -16.737725,19.43892 -16.737725,19.43892 0,0 10.73684,-13.00509 14.414515,-21.06152 3.259206,-7.13972 5.137314,-16.68307 1.267565,-23.51118 -3.685455,-6.50292 -12.39454,-9.70727 -19.830319,-10.4687 -6.484289,-0.664 -15.771656,1.884 -20.579556,6.28525 -4.780415,4.37609 -8.013148,11.42276 -5.233532,17.27735 4.343599,9.14875 16.83059,7.53938 16.83059,7.53938 z"
       id="path1204"
       inkscape:connector-curvature="0"
       sodipodi:nodetypes="cssssscsssssc" />
  </g>
</svg>
